#!OML:ASF E:\Style4\Style4.ASF
:FULLY-SPECIFIED
:DEGREES
1083
root 0.0361757 17.7438 -1.28154 -0.32995 -1.5994 2.30807
lowerback 5.8453 1.48764 -0.819949
upperback 2.08246 1.93082 -0.132449
thorax -1.15525 0.962445 0.193641
lowerneck -5.26767 -3.03498 -4.83591
upperneck 18.2092 -3.9611 2.21064
head 6.54187 -2.06052 1.22428
rclavicle -3.13583e-014 -7.95139e-016
rhumerus -0.445624 29.6487 -78.9187
rradius 86.5997
rwrist 19.0344
rhand -29.1026 17.2462
rfingers 7.12502
rthumb -2.45077 -12.7194
lclavicle -3.13583e-014 -7.95139e-016
lhumerus -12.8376 -40.5722 84.3664
lradius 65.6123
lwrist -14.276
lhand -20.8488 25.6694
lfingers 7.12502
lthumb 5.5203 55.5775
rfemur -13.0043 4.09726 16.0126
rtibia 33.2931
rfoot -18.7736 -12.3797
rtoes -12.3972
lfemur -11.0715 -2.18019 -21.3809
ltibia 30.7765
lfoot -19.4834 9.55122
ltoes -14.8817
1084
root 0.0387231 17.7441 -1.28177 -0.310122 -1.74075 2.27696
lowerback 5.85104 1.45907 -0.73051
upperback 2.09336 1.89742 -0.153632
thorax -1.14332 0.945938 0.124171
lowerneck -5.30458 -2.94482 -4.798
upperneck 18.0983 -3.84841 2.26161
head 6.50851 -1.99927 1.24255
rclavicle 2.8302e-014 -2.38542e-015
rhumerus 0.382014 29.5283 -78.5869
rradius 87.325
rwrist 19.1595
rhand -29.1508 17.2964
rfingers 7.12502
rthumb -2.49735 -12.6687
lclavicle 2.8302e-014 -2.38542e-015
lhumerus -13.6951 -40.8657 84.7268
lradius 65.3572
lwrist -14.2211
lhand -20.6274 25.5794
lfingers 7.12502
lthumb 5.7341 55.4818
rfemur -13.0379 4.22813 16.0352
rtibia 33.255
rfoot -18.7005 -12.3614
rtoes -12.5534
lfemur -11.0854 -2.10494 -21.3563
ltibia 30.7891
lfoot -19.566 9.6777
ltoes -15.2184
1085
root 0.0405453 17.7443 -1.2853 -0.234851 -1.87016 2.16045
lowerback 5.80834 1.45167 -0.511132
upperback 2.09841 1.89965 -0.187957
thorax -1.10619 0.947573 -0.03266
lowerneck -5.25516 -2.8833 -4.6687
upperneck 17.8928 -3.78257 2.28069
head 6.42914 -1.9573 1.23343
rclavicle -4.28629e-014 -7.55382e-015
rhumerus 1.19687 29.2561 -78.2819
rradius 87.9796
rwrist 19.1211
rhand -29.2256 17.5686
rfingers 7.12502
rthumb -2.56955 -12.3956
lclavicle -4.28629e-014 -7.55382e-015
lhumerus -14.464 -41.2637 85.0403
lradius 65.1953
lwrist -14.2425
lhand -20.4137 25.6159
lfingers 7.12502
lthumb 5.94043 55.5126
rfemur -13.1452 4.38281 16.1671
rtibia 33.2203
rfoot -18.6245 -12.4314
rtoes -12.6107
lfemur -11.202 -2.01576 -21.2267
ltibia 30.8389
lfoot -19.5992 9.78751
ltoes -15.6168
1086
root 0.0421101 17.7445 -1.28707 -0.199218 -1.98254 2.04672
lowerback 5.86386 1.42417 -0.398717
upperback 2.05622 1.86926 -0.154018
thorax -1.17788 0.932612 -0.0609737
lowerneck -5.19143 -2.80952 -4.60156
upperneck 17.7682 -3.68532 2.24747
head 6.37266 -1.90873 1.22015
rclavicle 1.86858e-014 -2.5842e-015
rhumerus 1.78367 29.1297 -78.032
rradius 88.5977
rwrist 19.2652
rhand -29.4296 17.7742
rfingers 7.12502
rthumb -2.76665 -12.1876
lclavicle 1.86858e-014 -2.5842e-015
lhumerus -15.3713 -41.5696 85.5146
lradius 65.0519
lwrist -14.2283
lhand -20.366 25.6658
lfingers 7.12502
lthumb 5.98643 55.5612
rfemur -13.1968 4.51019 16.2955
rtibia 33.1886
rfoot -18.6079 -12.434
rtoes -12.3776
lfemur -11.2766 -1.92982 -21.1001
ltibia 30.9031
lfoot -19.626 9.81468
ltoes -15.5485
1087
root 0.0460951 17.744 -1.28372 -0.17547 -2.07855 2.05062
lowerback 5.86742 1.41832 -0.381179
upperback 2.02853 1.86226 -0.159262
thorax -1.20756 0.929179 -0.0762532
lowerneck -5.17327 -2.77146 -4.52996
upperneck 17.7231 -3.63445 2.20294
head 6.35103 -1.88299 1.19821
rclavicle -4.09993e-015 7.15625e-015
rhumerus 2.24151 28.9257 -77.8661
rradius 89.1464
rwrist 19.5179
rhand -29.5788 17.9742
rfingers 7.12502
rthumb -2.91072 -11.9857
lclavicle -4.09993e-015 7.15625e-015
lhumerus -16.2358 -41.9839 85.9865
lradius 64.9784
lwrist -14.0734
lhand -20.353 25.503
lfingers 7.12502
lthumb 5.99899 55.3981
rfemur -13.2111 4.5306 16.2772
rtibia 33.1548
rfoot -18.5375 -12.4162
rtoes -12.6336
lfemur -11.3038 -1.86292 -21.1127
ltibia 30.9549
lfoot -19.7198 9.77497
ltoes -15.2563
1088
root 0.0501992 17.7448 -1.28081 -0.109238 -2.20276 2.02631
lowerback 5.79186 1.43298 -0.324063
upperback 2.0131 1.88531 -0.161373
thorax -1.17952 0.940799 -0.110122
lowerneck -5.12183 -2.75529 -4.51419
upperneck 17.6188 -3.61538 2.20415
head 6.30787 -1.87275 1.19833
rclavicle -9.49197e-015 4.37326e-015
rhumerus 2.70817 28.7593 -77.6687
rradius 89.6017
rwrist 19.5965
rhand -29.8715 17.9761
rfingers 7.12502
rthumb -3.19337 -11.9797
lclavicle -9.49197e-015 4.37326e-015
lhumerus -16.9997 -42.4449 86.3809
lradius 65.0403
lwrist -13.8501
lhand -20.3644 25.1267
lfingers 7.12502
lthumb 5.98801 55.0221
rfemur -13.2878 4.60355 16.2849
rtibia 33.1255
rfoot -18.4279 -12.4585
rtoes -12.7931
lfemur -11.354 -1.78513 -21.0977
ltibia 30.9689
lfoot -19.7297 9.76839
ltoes -14.971
1089
root 0.0512487 17.7472 -1.27857 -0.0808573 -2.30469 1.99674
lowerback 5.76787 1.44747 -0.276887
upperback 1.99919 1.90716 -0.168616
thorax -1.17871 0.951806 -0.144982
lowerneck -5.13834 -2.75399 -4.49912
upperneck 17.6195 -3.61527 2.20667
head 6.31068 -1.8715 1.19642
rclavicle 3.40419e-014 -1.19271e-015
rhumerus 3.12382 28.6208 -77.4724
rradius 90.0171
rwrist 19.5392
rhand -30.1822 17.8722
rfingers 7.12502
rthumb -3.49343 -12.0789
lclavicle 3.40419e-014 -1.19271e-015
lhumerus -17.69 -42.8441 86.7144
lradius 65.1778
lwrist -13.7288
lhand -20.6624 24.7988
lfingers 7.12502
lthumb 5.70034 54.7021
rfemur -13.3214 4.71043 16.3162
rtibia 33.1016
rfoot -18.3301 -12.5337
rtoes -12.9074
lfemur -11.3553 -1.76362 -21.0631
ltibia 30.9524
lfoot -19.7175 9.71153
ltoes -14.2576
1090
root 0.0520087 17.7483 -1.27716 -0.101939 -2.36807 2.02281
lowerback 5.77429 1.46179 -0.281773
upperback 2.01919 1.92567 -0.185029
thorax -1.16133 0.961062 -0.160146
lowerneck -5.09139 -2.77242 -4.52018
upperneck 17.5187 -3.64635 2.25101
head 6.27277 -1.88459 1.21262
rclavicle -1.35919e-014 2.98177e-015
rhumerus 3.49837 28.3171 -77.3134
rradius 90.3042
rwrist 19.7286
rhand -30.297 18.1101
rfingers 7.12502
rthumb -3.60432 -11.8392
lclavicle -1.35919e-014 2.98177e-015
lhumerus -18.2463 -43.1828 87.0276
lradius 65.3012
lwrist -13.7635
lhand -20.7273 24.7518
lfingers 7.12502
lthumb 5.63764 54.6569
rfemur -13.2928 4.77175 16.2906
rtibia 33.0811
rfoot -18.3625 -12.4904
rtoes -13.1158
lfemur -11.3074 -1.74801 -21.103
ltibia 30.9292
lfoot -19.6775 9.78855
ltoes -14.4667
1091
root 0.0531589 17.7491 -1.27628 -0.0786766 -2.38124 2.05048
lowerback 5.71667 1.45979 -0.287536
upperback 2.03857 1.92287 -0.197547
thorax -1.10912 0.959697 -0.1676
lowerneck -5.02265 -2.80382 -4.52051
upperneck 17.3868 -3.69191 2.2598
head 6.22081 -1.90608 1.21345
rclavicle 1.78161e-014 7.95139e-016
rhumerus 3.80585 28.0618 -77.1992
rradius 90.5241
rwrist 19.8928
rhand -30.4728 18.3001
rfingers 7.12502
rthumb -3.774 -11.6462
lclavicle 1.78161e-014 7.95139e-016
lhumerus -18.6492 -43.5074 87.299
lradius 65.4243
lwrist -13.8581
lhand -20.2969 25.005
lfingers 7.12502
lthumb 6.05317 54.8985
rfemur -13.3083 4.77752 16.2486
rtibia 33.0738
rfoot -18.4549 -12.4
rtoes -12.9305
lfemur -11.3171 -1.74484 -21.1424
ltibia 30.8974
lfoot -19.6025 9.87554
ltoes -14.8549
1092
root 0.0544312 17.7496 -1.27489 -0.0521798 -2.38371 2.05097
lowerback 5.67012 1.45617 -0.287579
upperback 2.04831 1.91852 -0.18418
thorax -1.07369 0.957504 -0.152103
lowerneck -4.94908 -2.85088 -4.58258
upperneck 17.2351 -3.75151 2.26713
head 6.16369 -1.93834 1.22318
rclavicle 1.99779e-014 3.97569e-016
rhumerus 4.01748 27.8655 -77.1256
rradius 90.6487
rwrist 19.975
rhand -30.5612 18.5164
rfingers 7.12502
rthumb -3.85943 -11.4284
lclavicle 1.99779e-014 3.97569e-016
lhumerus -18.9421 -43.7554 87.5608
lradius 65.5027
lwrist -13.9807
lhand -19.9891 25.0237
lfingers 7.12502
lthumb 6.35036 54.9086
rfemur -13.3319 4.79324 16.2339
rtibia 33.0824
rfoot -18.5007 -12.3487
rtoes -12.6222
lfemur -11.3285 -1.74899 -21.1483
ltibia 30.868
lfoot -19.5833 9.89518
ltoes -14.9215
1093
root 0.0551144 17.7501 -1.27479 -0.0128042 -2.37389 2.10773
lowerback 5.64098 1.46261 -0.360083
upperback 2.02822 1.92324 -0.188168
thorax -1.08035 0.959723 -0.115456
lowerneck -4.84164 -2.91573 -4.64745
upperneck 17.1098 -3.83968 2.29004
head 6.11051 -1.98379 1.23677
rclavicle 1.2275e-014 9.93923e-016
rhumerus 4.13904 27.638 -77.085
rradius 90.6833
rwrist 19.9463
rhand -30.619 18.9241
rfingers 7.12502
rthumb -3.91522 -11.0197
lclavicle 1.2275e-014 9.93923e-016
lhumerus -19.2503 -43.9574 87.8073
lradius 65.6666
lwrist -14.0627
lhand -19.9188 24.7098
lfingers 7.12502
lthumb 6.41816 54.5925
rfemur -13.391 4.77007 16.1619
rtibia 33.1004
rfoot -18.4801 -12.3162
rtoes -12.737
lfemur -11.3629 -1.75744 -21.2096
ltibia 30.8442
lfoot -19.6087 9.86808
ltoes -14.9214
1094
root 0.0549797 17.7506 -1.27514 -0.0158915 -2.38909 2.13561
lowerback 5.67319 1.48273 -0.390906
upperback 2.00959 1.94797 -0.194861
thorax -1.11822 0.972035 -0.107924
lowerneck -4.73982 -2.97901 -4.70478
upperneck 17.0151 -3.92733 2.31632
head 6.06802 -2.02834 1.25016
rclavicle -1.86361e-014 -2.98177e-015
rhumerus 4.18405 27.4161 -77.087
rradius 90.6555
rwrist 20.0004
rhand -30.689 19.1608
rfingers 7.12502
rthumb -3.98281 -10.7817
lclavicle -1.86361e-014 -2.98177e-015
lhumerus -19.5692 -44.1596 88.0295
lradius 65.9481
lwrist -14.1846
lhand -20.0559 24.609
lfingers 7.12502
lthumb 6.28585 54.4958
rfemur -13.4079 4.75938 16.1334
rtibia 33.117
rfoot -18.4529 -12.3429
rtoes -13.0914
lfemur -11.3452 -1.77041 -21.2419
ltibia 30.8147
lfoot -19.6779 9.94388
ltoes -15.2248
1095
root 0.0548553 17.751 -1.27491 -0.0350607 -2.41459 2.13544
lowerback 5.69829 1.51855 -0.390486
upperback 2.00858 1.99539 -0.20038
thorax -1.13308 0.995722 -0.117676
lowerneck -4.67883 -3.04075 -4.69412
upperneck 16.9586 -4.0136 2.31036
head 6.04254 -2.07013 1.2416
rclavicle 3.37934e-015 -4.57205e-015
rhumerus 4.17204 27.1397 -77.1713
rradius 90.5337
rwrist 20.2096
rhand -30.7118 19.3674
rfingers 7.12502
rthumb -4.00488 -10.5747
lclavicle 3.37934e-015 -4.57205e-015
lhumerus -19.719 -44.447 88.1624
lradius 66.2618
lwrist -14.2262
lhand -20.2587 24.7512
lfingers 7.12502
lthumb 6.09004 54.6437
rfemur -13.3892 4.79067 16.1375
rtibia 33.1142
rfoot -18.4748 -12.3337
rtoes -12.9926
lfemur -11.3004 -1.75435 -21.2491
ltibia 30.7839
lfoot -19.7332 10.0485
ltoes -15.5917
1096
root 0.0537249 17.7523 -1.27322 -0.0453279 -2.40929 2.16383
lowerback 5.68078 1.5552 -0.415693
upperback 2.01102 2.04259 -0.222878
thorax -1.12094 1.0193 -0.129176
lowerneck -4.66232 -3.10679 -4.66712
upperneck 16.9715 -4.10744 2.31044
head 6.04666 -2.11401 1.23084
rclavicle -1.93567e-014 -6.95746e-015
rhumerus 4.15292 26.8477 -77.265
rradius 90.2392
rwrist 20.3509
rhand -30.8807 19.5669
rfingers 7.12502
rthumb -4.16789 -10.3721
lclavicle -1.93567e-014 -6.95746e-015
lhumerus -19.7216 -44.7667 88.2032
lradius 66.5638
lwrist -14.2401
lhand -20.2188 24.8268
lfingers 7.12502
lthumb 6.12857 54.7181
rfemur -13.3651 4.81759 16.1139
rtibia 33.0956
rfoot -18.4701 -12.3751
rtoes -12.9771
lfemur -11.2641 -1.75419 -21.2769
ltibia 30.7611
lfoot -19.704 9.98293
ltoes -15.3221
